<svg version="1.1" xmlns="http://www.w3.org/2000/svg" width="50" height="26">
	<g>
		<path class="st0" d="M21.433336285213954,26.432510375976562 c0,0 1.5164591073989868,-1.600000023841858 2.729626441525113,-1.2000000476837158 c0,0 1.920848178601915,-0.20000000298023224 2.123042653944708,-0.4000000059604645 l-3.0329182147979736,-3.5 c0,0 -2.0219454765319824,-0.800000011920929 -2.527431845664978,-1.7000000476837158 c-0.2021945506661318,0 -0.6065836670630631,-0.5 -2.2241400723921174,-0.6000000238418579 c-3.2351128106581086,-0.20000000298023224 -4.95376651391723,0.10000000149011612 -4.95376651391723,0.10000000149011612 c-9.806435368352368,1.100000023841858 -8.08778190612793,1.2999999523162842 -13.547034307108788,3.799999952316284 c0,0 5.863642074770496,-4.300000190734863 8.08778190612793,-5 c2.6285290230777036,-0.800000011920929 6.065836429595947,-0.5 6.065836429595947,-0.5 s-5.661447237875677,0.10000000149011612 -10.716311411275,2 c-3.1340153922106992,1.2000000476837158 4.1449881304766905,-2.700000047683716 4.1449881304766905,-2.700000047683716 c0.8087782026645272,0 -7.784489891820385,1.399999976158142 -2.8307236189378386,0.10000000149011612 c4.448280144784235,-1.100000023841858 8.391073920435474,-3.700000047683716 8.391073920435474,-3.700000047683716 l3.7405991797911042,-2.799999952316284 c0,0 10.615213751792908,-7.099999904632568 16.579952521906762,-7.900000095367432 c0,0 0,0 0,0 c1.0109727382659912,-1.100000023841858 2.2241400723921174,-1.2999999523162842 3.639501761343695,-1.7999999523162842 c1.7186537032591218,-0.6000000238418579 2.931821037385248,-1.100000023841858 5.3581557056375,0.10000000149011612 c1.5164591073989868,0.800000011920929 2.123042653944708,2.299999952316284 2.123042653944708,2.299999952316284 s4.5493773221969604,1.399999976158142 5.762544415288403,3.200000047683716 c0,0 -4.650474499609686,-0.5 -5.661447237875677,-0.4000000059604645 c-0.8087782026645272,0.10000000149011612 -3.84169635720383,-0.10000000149011612 -5.3581557056375,1.899999976158142 c-6.874614813036487,9.399999618530273 -8.694365934743018,10.199999809265137 -12.434964873499439,12 c0,0 -1.2131673341261262,0.30000001192092896 0,0 c0,0 0.2021945506661318,-0.10000000149011612 0,0 c0,0 -0.9098754403359237,0.30000001192092896 -0.7076809047344597,0.699999988079071 l1.6175564053290543,3.9000000953674316 c0,0 0.6065836670630631,0.5 1.2131673341261262,0.5 c0.5054863691329956,0 3.9427937756512392,0.4000000059604645 4.650474499609686,1.2999999523162842 " id="svg_2" stroke="none" opacity="1" fill="#000000" fill-opacity="1" filter=""/>
	</g>
</svg>
